<mxfile host="app.diagrams.net" modified="2022-02-02T21:34:35.114Z" agent="5.0 (Macintosh; Intel Mac OS X 10_15_7) AppleWebKit/537.36 (KHTML, like Gecko) Chrome/96.0.4664.110 Safari/537.36 OPR/82.0.4227.58" etag="DDVkLi9fzYbxEEcFO1YW" version="16.5.3" type="github">
  <diagram name="Page-1" id="edf60f1a-56cd-e834-aa8a-f176f3a09ee4">
    <mxGraphModel dx="906" dy="531" grid="1" gridSize="10" guides="1" tooltips="1" connect="1" arrows="1" fold="1" page="1" pageScale="1" pageWidth="1100" pageHeight="850" background="none" math="0" shadow="1">
      <root>
        <mxCell id="0" />
        <mxCell id="1" parent="0" />
        <mxCell id="zzRFt7y8Lg2_YDjcbfGq-1" value="Branch 1" style="shape=document;whiteSpace=wrap;html=1;boundedLbl=1;" vertex="1" parent="1">
          <mxGeometry x="90" y="70" width="120" height="80" as="geometry" />
        </mxCell>
        <mxCell id="zzRFt7y8Lg2_YDjcbfGq-2" value="Branch 2" style="shape=document;whiteSpace=wrap;html=1;boundedLbl=1;" vertex="1" parent="1">
          <mxGeometry x="280" y="70" width="120" height="80" as="geometry" />
        </mxCell>
        <mxCell id="zzRFt7y8Lg2_YDjcbfGq-3" value="Branch N" style="shape=document;whiteSpace=wrap;html=1;boundedLbl=1;" vertex="1" parent="1">
          <mxGeometry x="470" y="70" width="120" height="80" as="geometry" />
        </mxCell>
        <mxCell id="zzRFt7y8Lg2_YDjcbfGq-4" value="Branch 1" style="shape=document;whiteSpace=wrap;html=1;boundedLbl=1;" vertex="1" parent="1">
          <mxGeometry x="680" y="70" width="120" height="80" as="geometry" />
        </mxCell>
        <mxCell id="zzRFt7y8Lg2_YDjcbfGq-5" value="Branch K" style="shape=document;whiteSpace=wrap;html=1;boundedLbl=1;" vertex="1" parent="1">
          <mxGeometry x="870" y="70" width="120" height="80" as="geometry" />
        </mxCell>
        <mxCell id="zzRFt7y8Lg2_YDjcbfGq-7" value="sprint-1" style="shape=document;whiteSpace=wrap;html=1;boundedLbl=1;" vertex="1" parent="1">
          <mxGeometry x="280" y="230" width="120" height="80" as="geometry" />
        </mxCell>
        <mxCell id="zzRFt7y8Lg2_YDjcbfGq-8" value="sprint-X" style="shape=document;whiteSpace=wrap;html=1;boundedLbl=1;" vertex="1" parent="1">
          <mxGeometry x="780" y="230" width="120" height="80" as="geometry" />
        </mxCell>
        <mxCell id="zzRFt7y8Lg2_YDjcbfGq-9" value="dev" style="shape=document;whiteSpace=wrap;html=1;boundedLbl=1;" vertex="1" parent="1">
          <mxGeometry x="510" y="345" width="120" height="80" as="geometry" />
        </mxCell>
        <mxCell id="zzRFt7y8Lg2_YDjcbfGq-10" value="master" style="shape=document;whiteSpace=wrap;html=1;boundedLbl=1;" vertex="1" parent="1">
          <mxGeometry x="510" y="505" width="120" height="80" as="geometry" />
        </mxCell>
        <mxCell id="zzRFt7y8Lg2_YDjcbfGq-11" value="hotfix/branch-X" style="shape=document;whiteSpace=wrap;html=1;boundedLbl=1;" vertex="1" parent="1">
          <mxGeometry x="110" y="385" width="120" height="80" as="geometry" />
        </mxCell>
        <mxCell id="zzRFt7y8Lg2_YDjcbfGq-12" value="hotfix/branch-X" style="shape=document;whiteSpace=wrap;html=1;boundedLbl=1;" vertex="1" parent="1">
          <mxGeometry x="120" y="395" width="120" height="80" as="geometry" />
        </mxCell>
        <mxCell id="zzRFt7y8Lg2_YDjcbfGq-13" value="hotfix/branch-X" style="shape=document;whiteSpace=wrap;html=1;boundedLbl=1;" vertex="1" parent="1">
          <mxGeometry x="130" y="405" width="120" height="80" as="geometry" />
        </mxCell>
        <mxCell id="zzRFt7y8Lg2_YDjcbfGq-14" value="hotfix/branch-X" style="shape=document;whiteSpace=wrap;html=1;boundedLbl=1;" vertex="1" parent="1">
          <mxGeometry x="140" y="415" width="120" height="80" as="geometry" />
        </mxCell>
        <mxCell id="zzRFt7y8Lg2_YDjcbfGq-15" value="hotfix/branch-X" style="shape=document;whiteSpace=wrap;html=1;boundedLbl=1;" vertex="1" parent="1">
          <mxGeometry x="150" y="425" width="120" height="80" as="geometry" />
        </mxCell>
        <mxCell id="zzRFt7y8Lg2_YDjcbfGq-16" value="Branch N" style="shape=document;whiteSpace=wrap;html=1;boundedLbl=1;" vertex="1" parent="1">
          <mxGeometry x="480" y="80" width="120" height="80" as="geometry" />
        </mxCell>
        <mxCell id="zzRFt7y8Lg2_YDjcbfGq-17" value="Branch N" style="shape=document;whiteSpace=wrap;html=1;boundedLbl=1;" vertex="1" parent="1">
          <mxGeometry x="490" y="90" width="120" height="80" as="geometry" />
        </mxCell>
        <mxCell id="zzRFt7y8Lg2_YDjcbfGq-18" value="Branch N" style="shape=document;whiteSpace=wrap;html=1;boundedLbl=1;" vertex="1" parent="1">
          <mxGeometry x="500" y="100" width="120" height="80" as="geometry" />
        </mxCell>
        <mxCell id="zzRFt7y8Lg2_YDjcbfGq-19" value="Branch K" style="shape=document;whiteSpace=wrap;html=1;boundedLbl=1;" vertex="1" parent="1">
          <mxGeometry x="880" y="80" width="120" height="80" as="geometry" />
        </mxCell>
        <mxCell id="zzRFt7y8Lg2_YDjcbfGq-20" value="Branch K" style="shape=document;whiteSpace=wrap;html=1;boundedLbl=1;" vertex="1" parent="1">
          <mxGeometry x="890" y="90" width="120" height="80" as="geometry" />
        </mxCell>
        <mxCell id="zzRFt7y8Lg2_YDjcbfGq-21" value="Branch K" style="shape=document;whiteSpace=wrap;html=1;boundedLbl=1;" vertex="1" parent="1">
          <mxGeometry x="900" y="100" width="120" height="80" as="geometry" />
        </mxCell>
        <mxCell id="zzRFt7y8Lg2_YDjcbfGq-22" value="" style="endArrow=classic;html=1;rounded=0;exitX=0.483;exitY=0.913;exitDx=0;exitDy=0;exitPerimeter=0;entryX=0.5;entryY=0;entryDx=0;entryDy=0;" edge="1" parent="1" source="zzRFt7y8Lg2_YDjcbfGq-1" target="zzRFt7y8Lg2_YDjcbfGq-7">
          <mxGeometry width="50" height="50" relative="1" as="geometry">
            <mxPoint x="145" y="240" as="sourcePoint" />
            <mxPoint x="195" y="190" as="targetPoint" />
          </mxGeometry>
        </mxCell>
        <mxCell id="zzRFt7y8Lg2_YDjcbfGq-23" value="" style="endArrow=classic;html=1;rounded=0;exitX=0.5;exitY=0.875;exitDx=0;exitDy=0;exitPerimeter=0;" edge="1" parent="1" source="zzRFt7y8Lg2_YDjcbfGq-2">
          <mxGeometry width="50" height="50" relative="1" as="geometry">
            <mxPoint x="530" y="360" as="sourcePoint" />
            <mxPoint x="340" y="230" as="targetPoint" />
          </mxGeometry>
        </mxCell>
        <mxCell id="zzRFt7y8Lg2_YDjcbfGq-25" value="" style="endArrow=classic;html=1;rounded=0;exitX=0;exitY=0.75;exitDx=0;exitDy=0;entryX=0.5;entryY=0;entryDx=0;entryDy=0;" edge="1" parent="1" source="zzRFt7y8Lg2_YDjcbfGq-18" target="zzRFt7y8Lg2_YDjcbfGq-7">
          <mxGeometry width="50" height="50" relative="1" as="geometry">
            <mxPoint x="530" y="360" as="sourcePoint" />
            <mxPoint x="580" y="310" as="targetPoint" />
          </mxGeometry>
        </mxCell>
        <mxCell id="zzRFt7y8Lg2_YDjcbfGq-26" value="" style="endArrow=classic;html=1;rounded=0;entryX=0.5;entryY=0;entryDx=0;entryDy=0;exitX=0.508;exitY=0.85;exitDx=0;exitDy=0;exitPerimeter=0;" edge="1" parent="1" source="zzRFt7y8Lg2_YDjcbfGq-4" target="zzRFt7y8Lg2_YDjcbfGq-8">
          <mxGeometry width="50" height="50" relative="1" as="geometry">
            <mxPoint x="730" y="160" as="sourcePoint" />
            <mxPoint x="580" y="310" as="targetPoint" />
          </mxGeometry>
        </mxCell>
        <mxCell id="zzRFt7y8Lg2_YDjcbfGq-27" value="" style="endArrow=classic;html=1;rounded=0;exitX=0;exitY=0.85;exitDx=0;exitDy=0;exitPerimeter=0;" edge="1" parent="1" source="zzRFt7y8Lg2_YDjcbfGq-21">
          <mxGeometry width="50" height="50" relative="1" as="geometry">
            <mxPoint x="974" y="190" as="sourcePoint" />
            <mxPoint x="840" y="230" as="targetPoint" />
          </mxGeometry>
        </mxCell>
        <mxCell id="zzRFt7y8Lg2_YDjcbfGq-28" value="" style="endArrow=classic;html=1;rounded=0;entryX=0.5;entryY=0;entryDx=0;entryDy=0;" edge="1" parent="1" source="zzRFt7y8Lg2_YDjcbfGq-7" target="zzRFt7y8Lg2_YDjcbfGq-9">
          <mxGeometry width="50" height="50" relative="1" as="geometry">
            <mxPoint x="620" y="360" as="sourcePoint" />
            <mxPoint x="670" y="310" as="targetPoint" />
          </mxGeometry>
        </mxCell>
        <mxCell id="zzRFt7y8Lg2_YDjcbfGq-29" value="" style="endArrow=classic;html=1;rounded=0;exitX=0;exitY=0.75;exitDx=0;exitDy=0;entryX=0.5;entryY=0;entryDx=0;entryDy=0;" edge="1" parent="1" source="zzRFt7y8Lg2_YDjcbfGq-8" target="zzRFt7y8Lg2_YDjcbfGq-9">
          <mxGeometry width="50" height="50" relative="1" as="geometry">
            <mxPoint x="620" y="360" as="sourcePoint" />
            <mxPoint x="670" y="310" as="targetPoint" />
          </mxGeometry>
        </mxCell>
        <mxCell id="zzRFt7y8Lg2_YDjcbfGq-30" value="" style="endArrow=classic;html=1;rounded=0;entryX=0.5;entryY=0;entryDx=0;entryDy=0;exitX=0.492;exitY=0.888;exitDx=0;exitDy=0;exitPerimeter=0;" edge="1" parent="1" source="zzRFt7y8Lg2_YDjcbfGq-9" target="zzRFt7y8Lg2_YDjcbfGq-10">
          <mxGeometry width="50" height="50" relative="1" as="geometry">
            <mxPoint x="640" y="470" as="sourcePoint" />
            <mxPoint x="670" y="490" as="targetPoint" />
          </mxGeometry>
        </mxCell>
        <mxCell id="zzRFt7y8Lg2_YDjcbfGq-31" value="" style="endArrow=classic;html=1;rounded=0;exitX=1;exitY=0.5;exitDx=0;exitDy=0;entryX=0;entryY=0.25;entryDx=0;entryDy=0;" edge="1" parent="1" source="zzRFt7y8Lg2_YDjcbfGq-15" target="zzRFt7y8Lg2_YDjcbfGq-10">
          <mxGeometry width="50" height="50" relative="1" as="geometry">
            <mxPoint x="620" y="540" as="sourcePoint" />
            <mxPoint x="670" y="490" as="targetPoint" />
          </mxGeometry>
        </mxCell>
      </root>
    </mxGraphModel>
  </diagram>
</mxfile>
